<svg width="105.613px" height="105.613px" viewBox="0 -10.22 105.613 105.613" xmlns="http://www.w3.org/2000/svg">
  <g id="Low_Poly" transform="translate(-127.732 -416.875)">
    <circle id="Ellipse_201" data-name="Ellipse 201" cx="1.703" cy="1.703" r="1.703" transform="translate(143.064 449.241)"/>
    <circle id="Ellipse_202" data-name="Ellipse 202" cx="1.703" cy="1.703" r="1.703" transform="translate(149.878 449.241)"/>
    <circle id="Ellipse_203" data-name="Ellipse 203" cx="1.703" cy="1.703" r="1.703" transform="translate(156.691 449.241)"/>
    <circle id="Ellipse_204" data-name="Ellipse 204" cx="1.703" cy="1.703" r="1.703" transform="translate(146.471 452.648)"/>
    <circle id="Ellipse_205" data-name="Ellipse 205" cx="1.703" cy="1.703" r="1.703" transform="translate(153.285 452.648)"/>
    <circle id="Ellipse_206" data-name="Ellipse 206" cx="1.703" cy="1.703" r="1.703" transform="translate(160.098 452.648)"/>
    <circle id="Ellipse_207" data-name="Ellipse 207" cx="1.703" cy="1.703" r="1.703" transform="translate(149.878 456.055)"/>
    <circle id="Ellipse_208" data-name="Ellipse 208" cx="1.703" cy="1.703" r="1.703" transform="translate(156.691 456.055)"/>
    <circle id="Ellipse_209" data-name="Ellipse 209" cx="1.703" cy="1.703" r="1.703" transform="translate(153.285 459.462)"/>
    <circle id="Ellipse_210" data-name="Ellipse 210" cx="1.703" cy="1.703" r="1.703" transform="translate(160.098 459.462)"/>
    <circle id="Ellipse_211" data-name="Ellipse 211" cx="1.703" cy="1.703" r="1.703" transform="translate(156.691 462.868)"/>
    <circle id="Ellipse_212" data-name="Ellipse 212" cx="1.703" cy="1.703" r="1.703" transform="translate(163.505 462.868)"/>
    <circle id="Ellipse_213" data-name="Ellipse 213" cx="1.703" cy="1.703" r="1.703" transform="translate(153.285 466.275)"/>
    <circle id="Ellipse_214" data-name="Ellipse 214" cx="1.703" cy="1.703" r="1.703" transform="translate(160.098 466.275)"/>
    <circle id="Ellipse_215" data-name="Ellipse 215" cx="1.703" cy="1.703" r="1.703" transform="translate(156.691 469.682)"/>
    <circle id="Ellipse_216" data-name="Ellipse 216" cx="1.703" cy="1.703" r="1.703" transform="translate(163.505 469.682)"/>
    <circle id="Ellipse_217" data-name="Ellipse 217" cx="1.703" cy="1.703" r="1.703" transform="translate(160.098 473.089)"/>
    <circle id="Ellipse_218" data-name="Ellipse 218" cx="1.703" cy="1.703" r="1.703" transform="translate(166.912 473.089)"/>
    <circle id="Ellipse_219" data-name="Ellipse 219" cx="1.703" cy="1.703" r="1.703" transform="translate(163.505 476.496)"/>
    <circle id="Ellipse_220" data-name="Ellipse 220" cx="1.703" cy="1.703" r="1.703" transform="translate(166.912 479.903)"/>
    <circle id="Ellipse_221" data-name="Ellipse 221" cx="1.703" cy="1.703" r="1.703" transform="translate(170.319 483.31)"/>
    <circle id="Ellipse_222" data-name="Ellipse 222" cx="1.703" cy="1.703" r="1.703" transform="translate(204.388 449.241)"/>
    <circle id="Ellipse_223" data-name="Ellipse 223" cx="1.703" cy="1.703" r="1.703" transform="translate(211.201 449.241)"/>
    <circle id="Ellipse_224" data-name="Ellipse 224" cx="1.703" cy="1.703" r="1.703" transform="translate(218.015 449.241)"/>
    <circle id="Ellipse_225" data-name="Ellipse 225" cx="1.703" cy="1.703" r="1.703" transform="translate(200.981 452.648)"/>
    <circle id="Ellipse_226" data-name="Ellipse 226" cx="1.703" cy="1.703" r="1.703" transform="translate(207.794 452.648)"/>
    <circle id="Ellipse_227" data-name="Ellipse 227" cx="1.703" cy="1.703" r="1.703" transform="translate(214.608 452.648)"/>
    <circle id="Ellipse_228" data-name="Ellipse 228" cx="1.703" cy="1.703" r="1.703" transform="translate(197.574 456.055)"/>
    <circle id="Ellipse_229" data-name="Ellipse 229" cx="1.703" cy="1.703" r="1.703" transform="translate(204.388 456.055)"/>
    <circle id="Ellipse_230" data-name="Ellipse 230" cx="1.703" cy="1.703" r="1.703" transform="translate(211.201 456.055)"/>
    <circle id="Ellipse_231" data-name="Ellipse 231" cx="1.703" cy="1.703" r="1.703" transform="translate(200.981 459.462)"/>
    <circle id="Ellipse_232" data-name="Ellipse 232" cx="1.703" cy="1.703" r="1.703" transform="translate(207.794 459.462)"/>
    <circle id="Ellipse_233" data-name="Ellipse 233" cx="1.703" cy="1.703" r="1.703" transform="translate(197.574 462.868)"/>
    <circle id="Ellipse_234" data-name="Ellipse 234" cx="1.703" cy="1.703" r="1.703" transform="translate(204.388 462.868)"/>
    <circle id="Ellipse_235" data-name="Ellipse 235" cx="1.703" cy="1.703" r="1.703" transform="translate(194.167 466.275)"/>
    <circle id="Ellipse_236" data-name="Ellipse 236" cx="1.703" cy="1.703" r="1.703" transform="translate(200.981 466.275)"/>
    <circle id="Ellipse_237" data-name="Ellipse 237" cx="1.703" cy="1.703" r="1.703" transform="translate(197.574 469.682)"/>
    <circle id="Ellipse_238" data-name="Ellipse 238" cx="1.703" cy="1.703" r="1.703" transform="translate(194.167 473.089)"/>
    <circle id="Ellipse_239" data-name="Ellipse 239" cx="1.703" cy="1.703" r="1.703" transform="translate(190.76 476.496)"/>
    <circle id="Ellipse_240" data-name="Ellipse 240" cx="1.703" cy="1.703" r="1.703" transform="translate(156.691 421.986)"/>
    <circle id="Ellipse_241" data-name="Ellipse 241" cx="1.703" cy="1.703" r="1.703" transform="translate(163.505 421.986)"/>
    <circle id="Ellipse_242" data-name="Ellipse 242" cx="1.703" cy="1.703" r="1.703" transform="translate(170.319 421.986)"/>
    <circle id="Ellipse_243" data-name="Ellipse 243" cx="1.703" cy="1.703" r="1.703" transform="translate(160.098 425.393)"/>
    <circle id="Ellipse_244" data-name="Ellipse 244" cx="1.703" cy="1.703" r="1.703" transform="translate(166.912 425.393)"/>
    <circle id="Ellipse_245" data-name="Ellipse 245" cx="1.703" cy="1.703" r="1.703" transform="translate(156.691 428.8)"/>
    <circle id="Ellipse_246" data-name="Ellipse 246" cx="1.703" cy="1.703" r="1.703" transform="translate(163.505 428.8)"/>
    <circle id="Ellipse_247" data-name="Ellipse 247" cx="1.703" cy="1.703" r="1.703" transform="translate(160.098 432.207)"/>
    <circle id="Ellipse_248" data-name="Ellipse 248" cx="1.703" cy="1.703" r="1.703" transform="translate(190.76 421.986)"/>
    <circle id="Ellipse_249" data-name="Ellipse 249" cx="1.703" cy="1.703" r="1.703" transform="translate(197.574 421.986)"/>
    <circle id="Ellipse_250" data-name="Ellipse 250" cx="1.703" cy="1.703" r="1.703" transform="translate(204.388 421.986)"/>
    <circle id="Ellipse_251" data-name="Ellipse 251" cx="1.703" cy="1.703" r="1.703" transform="translate(194.167 425.393)"/>
    <circle id="Ellipse_252" data-name="Ellipse 252" cx="1.703" cy="1.703" r="1.703" transform="translate(200.981 425.393)"/>
    <circle id="Ellipse_253" data-name="Ellipse 253" cx="1.703" cy="1.703" r="1.703" transform="translate(190.76 428.8)"/>
    <circle id="Ellipse_254" data-name="Ellipse 254" cx="1.703" cy="1.703" r="1.703" transform="translate(197.574 428.8)"/>
    <circle id="Ellipse_255" data-name="Ellipse 255" cx="1.703" cy="1.703" r="1.703" transform="translate(194.167 432.207)"/>
    <path id="Path_171" data-name="Path 171" d="M233.086,444.932l-17.034-27.255a1.7,1.7,0,0,0-1.444-.8H146.47a1.7,1.7,0,0,0-1.444.8l-17.034,27.255a1.7,1.7,0,0,0,.2,2.066l51.1,54.51a1.7,1.7,0,0,0,2.486,0l51.1-54.51A1.706,1.706,0,0,0,233.086,444.932Zm-7.072,4.413a1.664,1.664,0,0,0-1.1,1.174l-2.044,2.18a1.669,1.669,0,0,0-1.421,1.516l-1.726,1.841h-.005a1.7,1.7,0,0,0-1.7,1.7c0,.034.026.058.028.091l-1.561,1.665c-.061-.007-.107-.052-.17-.052a1.7,1.7,0,0,0-1.7,1.7c0,.1.069.165.085.256l-1.416,1.51a1.582,1.582,0,0,0-.373-.063,1.7,1.7,0,0,0-1.7,1.7,1.594,1.594,0,0,0,.087.482l-1.24,1.323a1.637,1.637,0,0,0-.55-.1,1.7,1.7,0,0,0-1.7,1.7,1.642,1.642,0,0,0,.14.652l-1.142,1.218a1.652,1.652,0,0,0-.7-.167,1.7,1.7,0,0,0-1.7,1.7,1.66,1.66,0,0,0,.221.793l-1.089,1.161a1.656,1.656,0,0,0-.836-.251,1.7,1.7,0,0,0-1.7,1.7,1.657,1.657,0,0,0,.31.925l-1.047,1.117a1.664,1.664,0,0,0-.966-.338,1.7,1.7,0,0,0-1.7,1.7,1.67,1.67,0,0,0,.4,1.057l-1.006,1.073a1.679,1.679,0,0,0-1.1-.426,1.7,1.7,0,0,0-1.215,2.892l-.972,1.037a1.691,1.691,0,1,0-2.309,2.463l-1.008,1.076a1.673,1.673,0,0,0-1.309-.654,1.7,1.7,0,0,0-1.7,1.7,1.673,1.673,0,0,0,.745,1.37l-1.05,1.12a1.673,1.673,0,0,0-1.4-.786,1.355,1.355,0,0,0-.141.029l1.2-3.836a1.675,1.675,0,0,0,.645-1.3,1.607,1.607,0,0,0-.09-.473l.556-1.778a1.7,1.7,0,1,0,1.238-2.858,1.671,1.671,0,0,0-.367.074l1.156-3.7a1.686,1.686,0,0,0,.915-1.485,1.657,1.657,0,0,0-.209-.774l.529-1.693a1.674,1.674,0,0,0,1.383.764,1.7,1.7,0,1,0,0-3.406,1.677,1.677,0,0,0-.594.12l1.137-3.636a1.687,1.687,0,0,0,1.161-1.594,1.662,1.662,0,0,0-.354-.99l.529-1.693a1.7,1.7,0,1,0,1.528-2.428,1.66,1.66,0,0,0-.851.26l1.166-3.731a1.679,1.679,0,0,0,1.388-1.64,1.7,1.7,0,0,0-.5-1.2l.574-1.835a1.679,1.679,0,0,0,1.629,1.336,1.7,1.7,0,0,0,0-3.406,1.679,1.679,0,0,0-1.12.442l.671-2.146h2.153a1.7,1.7,0,1,0,3.406,0H207.8a1.7,1.7,0,1,0,3.406,0h3.407a1.7,1.7,0,1,0,3.406,0h3.407a1.7,1.7,0,1,0,3.407,0h2.881Zm-75.389,16.6a1.657,1.657,0,0,0,.956.331,1.7,1.7,0,1,0-1.7-1.7,1.66,1.66,0,0,0,.264.856l-2.5-2.668a1.664,1.664,0,0,0,.533.108,1.7,1.7,0,1,0-1.7-1.7,1.638,1.638,0,0,0,.09.443l-2.063-2.2a1.656,1.656,0,0,0,.27.055,1.7,1.7,0,1,0-1.7-1.7c0,.054.026.1.031.153l-1.742-1.858.008,0a1.7,1.7,0,1,0-1.686-1.79l-1.548-1.651a1.689,1.689,0,1,0-1.821-1.942l-1.406-1.5a1.679,1.679,0,0,0,1.351-1.632h3.407a1.7,1.7,0,1,0,3.406,0h3.407a1.7,1.7,0,1,0,3.407,0h3.407a1.7,1.7,0,1,0,3.406,0H160.1a1.7,1.7,0,0,0,1.7,1.7,1.656,1.656,0,0,0,.893-.289l2.237,7.159a1.681,1.681,0,0,0-1.427,1.648,1.7,1.7,0,0,0,1.7,1.7,1.668,1.668,0,0,0,.718-.171l2.213,7.081a1.681,1.681,0,0,0-1.227,1.607,1.7,1.7,0,0,0,1.7,1.7,1.674,1.674,0,0,0,.525-.106l2.207,7.062a1.7,1.7,0,0,0,.676,3.264,1.606,1.606,0,0,0,.326-.062l2.23,7.136a1.68,1.68,0,0,0-.852,1.443,1.7,1.7,0,0,0,1.7,1.7c.045,0,.076-.034.12-.038l1.146,3.666Zm9.808-21.814H132.509l13.962-22.338Zm20.106-22.34L194.5,444.13H166.577Zm0,72.844-14.718-47.1h29.434Zm4.041-1.512a1.679,1.679,0,0,0,.24.162l-.437.466Zm16.065-48.992,13.961-22.338,13.963,22.338Zm-13.292-23.848a1.7,1.7,0,0,0,3.406,0h3.407a1.7,1.7,0,0,0,3.407,0h3.407a1.7,1.7,0,0,0,3.406,0h3.407a1.7,1.7,0,0,0,3.406,0h.335l-5.342,8.548c-.037,0-.065-.031-.1-.031a1.7,1.7,0,0,0-1.7,1.7,1.665,1.665,0,0,0,.244.827l-.825,1.32a1.683,1.683,0,0,0-1.122-.443,1.7,1.7,0,0,0-.648,3.277l-1.078,1.724a1.7,1.7,0,1,0-1.054,1.686l-2.33,3.729-.465-.744a1.692,1.692,0,0,0-1.238-2.857,1.618,1.618,0,0,0-.49.091l-1.256-2.01a1.662,1.662,0,0,0-.737-1.179l-4.469-7.151c.048,0,.09.028.139.028a1.7,1.7,0,1,0-1.577-2.328l-.879-1.406a1.673,1.673,0,0,0,.753-1.376,1.7,1.7,0,0,0-1.7-1.7,1.668,1.668,0,0,0-.823.241l-.955-1.528a1.6,1.6,0,0,0,.074-.417h3.406Zm-34.069,0a1.7,1.7,0,0,0,3.406,0H160.1a1.7,1.7,0,0,0,3.407,0h3.407a1.7,1.7,0,0,0,3.406,0h3.407a1.7,1.7,0,0,0,3.407,0h.335l-5.342,8.548c-.037,0-.065-.031-.1-.031a1.7,1.7,0,0,0-1.7,1.7,1.665,1.665,0,0,0,.244.827l-.825,1.32a1.683,1.683,0,0,0-1.122-.443,1.7,1.7,0,0,0-.648,3.277l-1.078,1.724a1.7,1.7,0,1,0-1.054,1.686l-2.33,3.729-.465-.744a1.686,1.686,0,0,0,.465-1.154,1.7,1.7,0,0,0-1.7-1.7,1.63,1.63,0,0,0-.491.091l-1.256-2.01a1.662,1.662,0,0,0-.737-1.179l-4.469-7.151c.048,0,.09.028.139.028a1.7,1.7,0,1,0-1.577-2.328l-.879-1.406a1.673,1.673,0,0,0,.753-1.376,1.7,1.7,0,0,0-1.7-1.7,1.668,1.668,0,0,0-.823.241L149.8,420.7a1.6,1.6,0,0,0,.074-.417h3.407Z"/>
  </g>
</svg>
